<?xml version="1.0" standalone="no"?>
<!DOCTYPE svg PUBLIC "-//W3C//DTD SVG 20010904//EN"
 "http://www.w3.org/TR/2001/REC-SVG-20010904/DTD/svg10.dtd">
<svg version="1.0" xmlns="http://www.w3.org/2000/svg"
 width="592.000000pt" height="592.000000pt" viewBox="0 0 592.000000 592.000000"
 preserveAspectRatio="xMidYMid meet">
<metadata>
Created by potrace 1.14, written by Peter Selinger 2001-2017
</metadata>
<g transform="translate(0.000000,592.000000) scale(0.100000,-0.100000)"
fill="#000000" stroke="none">
<path d="M2760 5895 c-11 -14 -6 -23 36 -66 53 -55 77 -68 140 -76 33 -4 43
-1 48 13 10 27 -94 122 -143 130 -20 3 -43 8 -52 10 -9 2 -22 -3 -29 -11z"/>
<path d="M2962 5897 c-10 -12 -2 -25 45 -75 33 -35 70 -63 86 -66 15 -3 38 -8
51 -11 14 -3 29 1 35 9 10 11 3 24 -31 64 -52 59 -82 79 -134 88 -29 4 -43 2
-52 -9z"/>
<path d="M3164 5886 c-6 -15 52 -96 90 -126 24 -18 96 -39 114 -32 21 7 14 25
-33 85 -46 58 -73 75 -133 84 -23 3 -34 0 -38 -11z"/>
<path d="M2555 5882 c-3 -3 -5 -12 -5 -21 1 -19 114 -111 138 -112 9 -1 31 -2
47 -4 38 -3 55 3 55 21 0 17 -116 114 -138 115 -73 5 -93 5 -97 1z"/>
<path d="M3372 5868 c-18 -22 57 -127 109 -155 47 -26 84 -30 92 -10 7 18 -73
128 -108 148 -45 26 -80 32 -93 17z"/>
<path d="M2385 5851 c-47 -10 -38 -37 28 -84 47 -33 66 -41 111 -43 61 -3 85
11 63 38 -15 20 -116 88 -131 89 -6 0 -18 2 -26 3 -8 1 -28 0 -45 -3z"/>
<path d="M3567 5827 c-6 -16 59 -126 87 -147 11 -8 36 -21 55 -28 28 -10 37
-10 47 0 10 10 4 27 -28 81 -32 55 -49 73 -82 88 -49 22 -72 24 -79 6z"/>
<path d="M2168 5803 c-35 -9 -19 -40 41 -76 61 -38 126 -52 170 -36 36 14 21
38 -48 80 -63 38 -107 47 -163 32z"/>
<path d="M3765 5781 c-6 -10 44 -121 66 -148 19 -22 89 -55 105 -49 20 8 18
23 -18 94 -24 48 -42 70 -73 88 -44 25 -70 30 -80 15z"/>
<path d="M1981 5741 c-52 -14 -38 -36 51 -80 57 -28 75 -32 110 -27 89 14 89
40 -1 86 -60 30 -107 36 -160 21z"/>
<path d="M3963 5714 c-7 -20 33 -121 61 -152 24 -27 68 -52 91 -52 22 0 19 31
-10 97 -28 62 -45 82 -93 107 -38 20 -41 20 -49 0z"/>
<path d="M1791 5667 c-43 -22 -36 -36 34 -68 71 -32 122 -38 168 -20 44 17 33
39 -35 71 -67 32 -127 38 -167 17z"/>
<path d="M4153 5634 c-16 -42 49 -171 101 -198 56 -30 65 -12 37 71 -24 72
-49 106 -93 129 -34 18 -37 18 -45 -2z"/>
<path d="M1613 5584 c-53 -23 -43 -46 31 -72 75 -26 113 -28 161 -8 50 21 44
40 -22 67 -67 27 -126 32 -170 13z"/>
<path d="M3095 5568 c-5 -5 -38 -29 -73 -54 l-63 -45 -70 51 c-39 28 -73 50
-75 47 -2 -2 7 -37 21 -77 14 -40 25 -79 25 -85 0 -6 -31 -33 -70 -60 -38 -28
-70 -52 -70 -55 0 -3 41 -5 92 -5 l92 0 21 -65 c36 -115 35 -114 65 -20 l27
85 94 5 93 5 -72 49 c-40 27 -72 56 -72 64 0 7 11 47 25 89 26 77 28 88 10 71z"/>
<path d="M4334 5546 c-7 -18 23 -132 43 -162 8 -13 31 -33 50 -45 51 -32 59
-16 38 73 -15 61 -24 79 -58 111 -42 39 -64 46 -73 23z"/>
<path d="M1457 5492 c-46 -15 -66 -37 -48 -55 5 -5 38 -17 74 -26 53 -15 72
-16 110 -6 88 22 96 55 19 75 -101 26 -108 27 -155 12z"/>
<path d="M4514 5446 c-7 -17 0 -78 16 -136 11 -40 73 -104 93 -97 21 7 12 121
-13 168 -16 29 -27 40 -62 63 -25 16 -28 16 -34 2z"/>
<path d="M2047 5359 c-26 -44 -53 -79 -60 -79 -7 0 -46 9 -87 20 -41 10 -75
18 -77 16 -2 -1 24 -33 56 -71 l59 -69 -50 -79 c-54 -87 -56 -85 57 -38 l69
30 36 -42 c19 -23 47 -55 62 -72 l27 -30 -5 50 c-2 28 -6 69 -9 93 l-4 43 62
28 c34 15 73 32 87 37 22 10 14 13 -68 33 -80 20 -92 26 -92 45 0 23 -12 160
-14 162 0 1 -23 -34 -49 -77z"/>
<path d="M3820 5418 c-1 -53 -14 -155 -21 -164 -5 -6 -28 -15 -52 -19 -63 -12
-71 -14 -96 -23 -21 -8 -20 -9 21 -26 137 -58 127 -51 122 -101 -2 -25 -6 -66
-9 -92 l-4 -48 32 35 c18 19 46 52 63 72 l30 38 83 -35 c45 -19 85 -35 87 -35
2 0 -18 35 -45 79 l-48 78 59 72 c33 39 57 71 53 71 -3 0 -44 -10 -91 -21 -46
-12 -86 -20 -87 -18 -2 2 -23 37 -46 77 -44 74 -51 81 -51 60z"/>
<path d="M1296 5385 c-74 -26 -87 -59 -28 -74 91 -24 129 -24 177 -1 65 32 61
55 -12 71 -80 17 -96 18 -137 4z"/>
<path d="M4677 5333 c-2 -5 -3 -15 -2 -23 1 -8 5 -41 9 -73 7 -67 13 -82 55
-121 45 -43 62 -31 55 41 -8 83 -21 118 -56 152 -31 30 -53 39 -61 24z"/>
<path d="M1118 5256 c-65 -34 -59 -57 19 -71 71 -13 104 -10 147 12 60 31 61
59 4 68 -92 16 -127 14 -170 -9z"/>
<path d="M4838 5198 c-6 -16 -2 -98 6 -141 7 -35 59 -97 82 -97 17 0 18 11 15
126 -2 63 -88 156 -103 112z"/>
<path d="M985 5136 c-47 -21 -78 -55 -65 -71 16 -19 153 -19 194 0 44 21 67
47 57 63 -12 20 -149 25 -186 8z"/>
<path d="M5000 5070 c-9 -6 -15 -32 -16 -84 -2 -67 0 -79 27 -120 36 -57 68
-63 70 -13 4 110 0 140 -27 179 -33 47 -36 49 -54 38z"/>
<path d="M835 4991 c-40 -25 -68 -57 -60 -70 3 -6 40 -11 84 -11 67 0 83 4
119 27 79 51 68 73 -36 73 -57 0 -85 -5 -107 -19z"/>
<path d="M2908 4985 c-2 -1 -48 -6 -103 -9 -337 -24 -672 -139 -962 -332 -61
-41 -118 -80 -125 -86 -7 -7 -40 -35 -73 -63 -308 -258 -558 -660 -648 -1045
-36 -153 -39 -167 -53 -305 -13 -120 -6 -393 11 -475 3 -14 7 -38 9 -55 11
-82 71 -301 101 -370 7 -16 23 -55 35 -85 32 -82 113 -230 181 -332 127 -189
260 -328 479 -502 137 -108 515 -292 660 -321 8 -2 33 -8 55 -14 276 -74 645
-76 944 -4 649 154 1179 611 1424 1228 96 241 141 481 141 745 -1 98 -12 278
-19 290 -1 3 -6 27 -9 53 -18 133 -91 362 -167 522 -234 497 -678 887 -1204
1058 -85 28 -224 62 -290 72 -23 3 -52 8 -65 10 -14 3 -70 8 -125 11 -55 3
-121 7 -147 8 -26 2 -49 2 -50 1z m277 -60 c43 -6 100 -16 240 -41 78 -15 283
-91 402 -149 509 -250 882 -695 1038 -1239 14 -49 27 -101 30 -115 2 -14 9
-51 15 -81 19 -99 25 -182 25 -340 0 -231 -14 -340 -71 -544 -188 -672 -744
-1209 -1429 -1380 -172 -43 -292 -55 -510 -51 -110 1 -213 6 -230 9 -16 3 -46
9 -65 12 -125 22 -164 31 -300 76 -556 184 -1016 630 -1226 1187 -33 88 -81
268 -100 378 -18 104 -26 417 -13 518 16 128 20 149 45 253 152 639 614 1161
1233 1394 162 61 371 107 546 121 64 5 316 -1 370 -8z"/>
<path d="M3118 4848 c-12 -33 19 -51 41 -25 8 10 7 17 -1 25 -16 16 -35 15
-40 0z"/>
<path d="M2837 4800 c-7 -3 -12 -14 -12 -25 0 -16 6 -20 33 -18 l32 2 2 -77
c0 -42 1 -86 2 -97 0 -19 32 -37 49 -27 5 2 8 43 7 91 -3 116 -4 111 29 111
33 0 41 8 32 30 -5 12 -23 15 -84 15 -43 0 -83 -2 -90 -5z"/>
<path d="M3107 4783 c-5 -16 -21 -203 -18 -220 0 -5 12 -9 26 -11 21 -3 25 1
26 25 0 15 2 37 4 47 11 57 15 166 6 166 -5 0 -16 3 -24 6 -9 3 -17 -2 -20
-13z"/>
<path d="M2637 4777 l-59 -10 7 -46 c4 -25 8 -50 9 -56 2 -5 7 -32 11 -60 5
-27 10 -53 11 -57 1 -5 2 -12 3 -17 0 -4 24 -4 54 1 92 15 97 17 97 39 0 19
-5 21 -52 17 -51 -3 -53 -2 -56 25 -3 21 1 27 17 27 38 0 71 18 64 36 -5 13
-16 15 -52 11 -43 -5 -46 -3 -47 18 -2 24 18 35 64 35 17 0 22 6 22 25 0 28
-2 28 -93 12z"/>
<path d="M2443 4733 c-23 -4 -24 -7 -26 -85 -1 -16 -4 -28 -8 -28 -3 0 -22 18
-40 39 -32 37 -36 39 -62 28 l-29 -12 61 -58 c42 -40 64 -70 71 -97 12 -45 19
-51 47 -44 23 6 23 11 4 67 -12 37 -7 104 15 180 3 9 2 16 -3 16 -4 -1 -18 -4
-30 -6z"/>
<path d="M3387 4628 c-50 -75 -64 -104 -55 -110 23 -14 44 -8 58 17 10 20 18
23 39 19 30 -7 52 -31 45 -49 -6 -15 22 -45 42 -45 11 0 14 24 14 129 l0 129
-31 6 c-17 3 -34 6 -38 6 -3 0 -37 -46 -74 -102z m89 -34 c-5 -12 -9 -12 -25
-2 -19 12 -19 12 2 50 l22 38 3 -36 c2 -20 1 -42 -2 -50z"/>
<path d="M2130 4670 c-8 -15 -6 -21 9 -29 21 -12 31 -5 31 20 0 25 -28 32 -40
9z"/>
<path d="M3646 4541 l-55 -108 38 -21 c56 -31 113 -42 148 -27 73 31 102 137
53 190 -25 27 -57 47 -105 65 -24 9 -27 6 -79 -99z m141 10 c17 -22 16 -46 -2
-82 -21 -39 -56 -53 -96 -36 l-29 12 36 72 c34 67 38 71 58 61 11 -6 26 -18
33 -27z"/>
<path d="M2158 4618 c-14 -12 -11 -23 31 -108 61 -126 58 -122 82 -110 10 6
19 15 19 20 0 20 -95 210 -105 210 -6 0 -18 -6 -27 -12z"/>
<path d="M1975 4519 c-42 -22 -75 -48 -75 -58 0 -3 29 -50 64 -104 63 -98 63
-98 85 -80 l22 18 -26 37 -25 37 21 11 c21 12 27 9 77 -37 13 -13 44 -4 56 15
5 9 -71 72 -86 72 -4 0 -5 13 -2 28 4 19 0 35 -13 49 -27 32 -54 35 -98 12z
m53 -41 c18 -18 14 -46 -8 -58 -17 -9 -24 -7 -40 12 -19 23 -19 23 1 41 25 20
31 21 47 5z"/>
<path d="M2862 4458 c-403 -30 -768 -210 -1026 -504 -245 -279 -378 -626 -379
-989 0 -77 9 -197 18 -246 3 -13 10 -50 16 -82 14 -79 70 -239 119 -339 81
-165 156 -266 304 -413 168 -166 353 -280 571 -353 379 -126 813 -94 1160 86
67 35 232 144 271 179 17 15 46 42 65 59 130 116 244 270 329 443 46 92 105
256 116 317 2 16 7 43 11 59 11 51 12 58 20 135 11 115 3 376 -13 401 -2 4 -6
24 -10 45 -23 148 -120 381 -222 533 -72 107 -94 134 -198 237 -252 252 -591
407 -939 430 -49 3 -94 7 -100 8 -5 1 -56 -2 -113 -6z"/>
<path d="M3989 4437 c-14 -12 -56 -43 -92 -69 -37 -27 -67 -51 -67 -56 0 -4 9
-13 21 -20 18 -11 24 -11 38 2 23 21 38 20 66 -2 20 -16 21 -20 9 -44 -12 -23
-11 -27 11 -48 19 -18 26 -20 30 -9 3 8 22 62 44 122 l39 107 -28 20 c-35 25
-39 25 -71 -3z m24 -69 c-21 -54 -17 -52 -42 -36 -21 13 -20 14 16 45 21 18
39 32 40 33 2 0 -5 -19 -14 -42z"/>
<path d="M1778 4379 c-27 -15 -22 -29 37 -93 59 -63 69 -98 35 -116 -27 -15
-46 -3 -110 66 -41 46 -55 56 -68 48 -30 -19 -23 -33 46 -104 84 -85 113 -91
168 -36 44 44 46 90 7 138 -70 84 -97 108 -115 97z"/>
<path d="M4132 4217 l-82 -82 49 -53 c51 -55 62 -60 80 -39 8 10 2 21 -24 47
l-35 34 71 72 c66 66 69 72 54 88 -9 9 -20 16 -23 16 -4 0 -44 -37 -90 -83z"/>
<path d="M1540 4139 c-7 -11 -10 -22 -8 -23 2 -1 17 -14 35 -28 l32 -26 -28
-36 -28 -35 -34 29 c-31 26 -35 27 -51 13 -10 -9 -18 -20 -18 -24 0 -9 179
-149 191 -149 5 0 13 9 19 21 12 21 4 33 -42 60 -24 13 -22 29 8 62 27 31 22
32 90 -17 12 -10 44 8 44 25 0 9 -179 149 -191 149 -5 0 -13 -9 -19 -21z"/>
<path d="M4300 4048 c-52 -39 -94 -75 -92 -80 1 -5 21 -34 43 -64 35 -47 42
-53 60 -44 19 11 18 12 -10 53 l-29 43 21 17 c24 19 20 22 63 -38 13 -18 15
-18 31 -3 15 16 14 19 -11 52 l-26 35 21 12 c20 10 26 7 53 -26 29 -34 33 -36
45 -21 12 14 9 24 -24 72 -21 30 -41 56 -44 58 -3 2 -49 -28 -101 -66z"/>
<path d="M4511 3901 c-12 -8 -12 -13 3 -36 10 -15 16 -28 14 -29 -2 -1 -39
-22 -83 -46 -44 -23 -82 -44 -84 -46 -2 -2 1 -15 9 -28 11 -22 15 -23 34 -12
11 8 51 29 87 48 l65 35 17 -29 c14 -25 20 -27 37 -18 19 10 18 13 -23 90 -42
80 -50 87 -76 71z"/>
<path d="M1345 3860 c-8 -16 -15 -31 -15 -33 0 -6 42 -49 85 -86 l39 -34 -39
7 c-130 25 -133 25 -143 -3 -15 -42 -13 -45 26 -66 20 -11 66 -37 101 -58 60
-35 64 -37 77 -20 12 16 10 21 -14 40 -15 13 -31 23 -37 23 -5 0 -28 12 -50
26 -38 24 -39 25 -10 20 34 -7 67 -13 112 -22 25 -5 33 -2 42 14 9 18 2 28
-61 87 l-72 66 78 -35 c43 -20 84 -36 92 -36 11 0 31 38 22 44 -1 1 -51 23
-111 48 l-107 47 -15 -29z"/>
<path d="M1199 3525 c-1 -8 -2 -20 -3 -26 -1 -7 34 -22 78 -35 89 -25 111 -42
101 -73 -10 -32 -45 -35 -130 -11 -42 12 -78 20 -80 18 -2 -2 -5 -14 -7 -27
-3 -22 3 -26 62 -42 100 -29 138 -30 167 -5 47 40 46 128 -1 159 -19 13 -159
57 -179 57 -4 0 -8 -7 -8 -15z"/>
<path d="M4585 3501 l-100 -28 3 -32 c7 -71 50 -131 94 -131 19 0 52 28 60 50
3 10 8 10 25 -1 30 -18 69 1 76 37 7 40 -22 134 -42 133 -9 0 -61 -13 -116
-28z m115 -60 c0 -34 -23 -47 -45 -25 -28 29 -16 48 33 53 7 1 12 -11 12 -28z
m-95 -40 c-1 -8 -10 -20 -19 -25 -14 -9 -21 -6 -37 13 -26 31 -24 37 14 48 33
10 47 -2 42 -36z"/>
<path d="M1131 3218 c-16 -42 -4 -108 24 -138 51 -53 152 -54 191 -3 26 35 39
122 20 141 -10 10 -36 -14 -36 -34 0 -63 -46 -98 -108 -82 -38 10 -56 46 -49
95 4 22 1 33 -10 37 -22 9 -23 8 -32 -16z"/>
<path d="M4542 3215 c2 -20 9 -26 35 -31 23 -4 33 -12 33 -24 0 -10 3 -26 6
-35 5 -11 -2 -19 -25 -28 -24 -9 -31 -17 -31 -39 0 -28 24 -39 46 -20 5 5 50
26 101 47 79 33 92 42 88 59 -2 12 -4 28 -4 37 -1 13 -26 21 -114 38 -141 26
-137 26 -135 -4z m182 -54 c15 -6 11 -10 -23 -23 -22 -9 -41 -13 -42 -10 0 4
-2 15 -4 25 -2 13 3 17 23 16 15 0 35 -4 46 -8z"/>
<path d="M4566 2953 c-3 -4 -6 -17 -6 -30 0 -20 5 -23 34 -23 40 0 66 -8 66
-21 0 -5 -21 -18 -47 -30 -59 -26 -53 -21 -59 -58 -6 -36 -2 -35 84 11 29 15
56 28 60 28 4 0 27 -18 50 -40 24 -22 46 -40 48 -40 2 0 4 15 4 33 0 28 -7 39
-46 68 l-46 34 48 5 c38 4 50 9 52 24 6 27 -9 32 -108 35 -49 1 -98 4 -109 6
-10 2 -22 1 -25 -2z"/>
<path d="M1323 2844 c-7 -3 -10 -11 -8 -17 2 -7 6 -29 8 -49 5 -36 3 -38 -23
-38 -29 0 -40 18 -40 67 0 15 -5 20 -17 18 -10 -2 -20 -4 -23 -4 -3 -1 -4 -21
-2 -46 4 -43 3 -45 -22 -45 -21 0 -26 5 -27 25 -1 14 -3 30 -4 35 -1 6 -3 15
-4 20 0 6 -10 10 -22 10 -19 0 -20 -4 -15 -42 3 -24 5 -58 5 -77 l1 -33 73 6
c39 3 83 8 97 11 14 3 37 6 53 7 27 2 27 3 21 53 -4 27 -8 57 -10 65 -1 8 -3
21 -3 28 -1 12 -16 15 -38 6z"/>
<path d="M4540 2692 c0 -6 -3 -17 -6 -26 -4 -9 4 -20 24 -30 24 -13 28 -19 24
-46 -5 -32 -7 -34 -53 -44 -18 -4 -28 -14 -32 -31 l-4 -26 106 6 c156 10 157
10 163 54 4 27 -1 32 -96 87 -108 63 -126 71 -126 56z m160 -134 c0 -5 -18 -8
-40 -8 -32 0 -40 4 -40 18 0 10 3 21 6 25 7 7 73 -25 74 -35z"/>
<path d="M1156 2546 c9 -31 33 -46 76 -46 21 0 38 -4 38 -8 0 -5 -18 -23 -39
-40 -29 -23 -38 -37 -34 -52 9 -35 19 -32 77 23 39 36 71 57 101 65 34 9 45
17 45 31 0 29 -16 34 -68 21 -40 -10 -58 -9 -125 7 l-77 20 6 -21z"/>
<path d="M4467 2413 c-22 -21 -3 -41 68 -68 41 -15 74 -29 73 -31 -2 -1 -37
-6 -78 -10 -41 -4 -83 -8 -93 -9 -21 -2 -37 -22 -37 -45 0 -10 38 -30 103 -57
57 -24 108 -43 114 -43 6 0 13 9 16 21 4 16 -2 24 -36 38 -23 10 -52 21 -64
25 -36 11 -27 23 20 25 23 1 51 3 62 5 11 3 30 5 42 5 14 1 24 11 32 32 10 29
9 31 -27 46 -20 8 -50 21 -67 28 -95 43 -117 49 -128 38z"/>
<path d="M1365 2324 c-55 -24 -104 -45 -109 -47 -5 -2 -5 -14 0 -29 l9 -26
100 42 c108 44 125 53 125 65 0 4 -6 14 -12 23 -12 13 -24 10 -113 -28z"/>
<path d="M1200 2245 c-10 -11 -10 -19 -2 -27 15 -15 44 -2 40 19 -4 23 -22 27
-38 8z"/>
<path d="M1487 2209 c-14 -24 -31 -56 -38 -71 -6 -14 -17 -25 -23 -23 -27 9
-116 14 -116 8 0 -5 8 -18 18 -30 13 -17 29 -23 75 -25 31 -2 57 -6 57 -9 0
-3 -18 -14 -40 -24 -42 -19 -47 -30 -27 -56 11 -14 23 -9 109 40 53 31 99 59
103 63 4 3 2 16 -4 27 -11 20 -31 20 -59 -3 -16 -12 -52 -19 -52 -9 0 3 13 30
29 58 28 50 28 52 11 75 l-17 23 -26 -44z"/>
<path d="M4310 2098 c-35 -56 -37 -63 -22 -75 18 -13 27 -6 62 46 l16 23 82
-52 c46 -29 84 -51 86 -49 2 2 8 13 14 24 9 18 1 26 -86 82 -53 34 -100 63
-105 63 -4 0 -25 -28 -47 -62z"/>
<path d="M1625 1988 c-11 -18 -23 -41 -27 -50 -5 -12 -18 -18 -37 -18 -20 0
-36 -8 -50 -26 -19 -24 -19 -28 -5 -62 8 -21 29 -51 46 -69 l31 -32 93 76 c82
67 91 78 81 94 -15 25 -22 24 -63 -8 -29 -22 -37 -24 -45 -12 -13 21 -12 26
16 67 23 33 23 37 8 54 -22 24 -26 23 -48 -14z m-15 -126 l23 -18 -28 -22
c-21 -17 -31 -19 -41 -11 -17 14 -18 41 -2 57 16 16 22 15 48 -6z"/>
<path d="M4212 1959 c-16 -25 -22 -17 92 -108 78 -63 78 -63 98 -43 20 20 20
20 -75 96 -52 42 -96 76 -98 76 -2 0 -10 -10 -17 -21z"/>
<path d="M4114 1828 c-31 -8 -86 -56 -105 -90 -7 -12 2 -27 37 -63 l46 -46 29
27 c32 31 33 33 20 53 -8 12 -12 13 -25 1 -14 -11 -20 -10 -37 6 l-21 19 27
22 c14 13 32 23 40 23 31 0 65 -21 80 -49 14 -27 14 -35 1 -66 -8 -19 -19 -35
-23 -35 -4 0 -17 -7 -27 -15 -16 -12 -17 -17 -6 -30 7 -8 16 -15 21 -15 20 0
79 64 90 97 30 92 -56 186 -147 161z"/>
<path d="M1778 1760 c-19 -16 -51 -49 -72 -75 -37 -44 -37 -47 -21 -65 17 -19
19 -17 84 50 53 56 71 68 88 64 51 -14 33 -68 -51 -155 -34 -35 -35 -37 -17
-53 16 -15 51 -13 51 3 0 3 13 20 28 36 72 78 88 127 56 173 -36 52 -98 61
-146 22z"/>
<path d="M3902 1663 l-21 -18 70 -95 c38 -52 75 -94 82 -92 40 11 35 27 -32
120 -37 51 -70 95 -73 97 -3 3 -15 -2 -26 -12z"/>
<path d="M4237 1602 c-19 -21 -22 -48 -7 -57 6 -3 14 5 19 19 6 14 19 26 33
28 29 4 26 22 -5 26 -13 2 -30 -5 -40 -16z"/>
<path d="M2034 1533 c-26 -43 -49 -80 -51 -82 -1 -2 -14 4 -27 13 -32 20 -33
20 -45 -3 -9 -17 -2 -25 63 -65 41 -25 78 -46 84 -46 16 0 24 33 10 42 -43 26
-43 23 11 109 49 77 52 84 35 96 -10 7 -21 13 -25 13 -4 0 -29 -35 -55 -77z"/>
<path d="M1660 1571 c0 -23 36 -35 44 -14 8 20 -1 33 -25 33 -12 0 -19 -7 -19
-19z"/>
<path d="M1717 1526 c-7 -18 11 -36 29 -29 8 3 14 14 14 24 0 22 -35 26 -43 5z"/>
<path d="M2917 1270 c-36 -28 -36 -72 -1 -105 30 -28 70 -25 97 6 54 65 -30
151 -96 99z"/>
<path d="M5135 4920 c-6 -10 -9 -30 -19 -111 -4 -34 15 -89 41 -123 31 -39 50
-17 58 66 6 70 -8 122 -42 160 -18 20 -29 23 -38 8z"/>
<path d="M4663 4836 c-46 -93 -33 -87 -152 -67 -36 6 -66 9 -68 8 -1 -2 26
-32 61 -67 l64 -64 -45 -84 c-24 -46 -41 -82 -36 -80 4 2 43 21 86 43 l77 39
65 -64 c72 -72 72 -72 51 47 l-13 72 76 38 c42 20 78 38 80 40 9 6 -7 13 -45
18 -88 11 -124 18 -128 24 -4 6 -11 46 -22 126 -3 28 -7 51 -8 52 -1 1 -21
-35 -43 -81z"/>
<path d="M1210 4895 c0 -8 -1 -16 -2 -17 0 -2 -6 -34 -13 -73 -12 -78 -8 -75
-130 -90 -51 -7 -68 -14 -50 -22 43 -17 150 -81 148 -88 -3 -19 -14 -90 -20
-130 l-6 -40 28 25 c15 14 45 43 66 65 l38 40 81 -41 c44 -23 80 -36 80 -30 0
6 -16 40 -35 76 -19 35 -35 69 -35 74 0 6 28 39 63 74 58 60 60 64 32 58 -16
-3 -46 -8 -65 -10 -19 -2 -47 -7 -62 -11 -25 -7 -29 -3 -68 74 -40 81 -50 94
-50 66z"/>
<path d="M753 4859 c-57 -11 -120 -65 -110 -93 6 -14 63 -15 144 -1 49 8 110
63 99 90 -6 16 -65 18 -133 4z"/>
<path d="M5260 4746 c-5 -14 -12 -54 -16 -89 -5 -53 -3 -70 15 -105 14 -28 28
-42 41 -42 25 0 33 32 34 127 1 57 -3 77 -20 99 -28 38 -42 40 -54 10z"/>
<path d="M685 4713 c-67 -9 -102 -24 -134 -57 -50 -52 -38 -69 41 -61 34 4 73
11 86 16 25 10 92 73 92 88 0 10 -26 22 -43 20 -7 -1 -25 -4 -42 -6z"/>
<path d="M5371 4558 c-23 -76 -24 -140 -3 -178 30 -55 48 -51 68 15 22 76 22
115 -1 164 -24 54 -48 54 -64 -1z"/>
<path d="M543 4544 c-47 -12 -70 -24 -97 -52 -20 -20 -36 -45 -36 -55 0 -17 5
-19 48 -13 72 10 88 13 119 29 35 19 76 74 69 93 -7 17 -22 17 -103 -2z"/>
<path d="M5471 4368 c-30 -96 -31 -127 -1 -176 27 -44 42 -32 69 57 21 70 20
104 -5 152 -23 45 -40 36 -63 -33z"/>
<path d="M446 4374 c-64 -20 -91 -39 -117 -80 -16 -26 -18 -38 -10 -48 10 -12
22 -11 78 6 37 11 77 28 89 37 27 19 66 85 57 95 -10 9 -43 6 -97 -10z"/>
<path d="M5564 4193 c-14 -32 -27 -76 -29 -98 -3 -41 21 -108 40 -108 18 0 68
116 68 158 1 43 -20 96 -40 103 -7 2 -23 -21 -39 -55z"/>
<path d="M378 4204 c-65 -23 -96 -43 -122 -77 -28 -36 -33 -62 -15 -72 14 -10
129 34 157 59 47 41 65 108 30 105 -7 -1 -30 -7 -50 -15z"/>
<path d="M5246 4039 c-63 -56 -70 -59 -90 -46 -66 43 -127 79 -131 75 -2 -2 3
-17 10 -33 8 -17 24 -52 35 -80 l21 -50 -36 -31 c-19 -18 -52 -46 -73 -62
l-37 -30 75 4 c41 3 80 6 86 8 21 8 38 -13 65 -80 14 -38 30 -69 35 -71 5 -2
17 33 27 78 10 44 24 82 30 84 11 4 105 12 162 14 12 1 -13 21 -63 52 -45 27
-82 53 -82 57 0 4 9 41 20 81 12 40 19 77 18 81 -2 5 -34 -19 -72 -51z"/>
<path d="M600 4086 c0 -3 9 -42 20 -87 11 -46 18 -83 17 -84 -57 -33 -147 -91
-147 -95 0 -3 10 -6 23 -7 165 -5 156 1 176 -98 20 -94 24 -94 62 -3 31 74 37
83 59 81 14 -1 56 -4 95 -7 l70 -5 -50 42 c-27 23 -60 51 -73 62 l-23 20 34
83 c20 45 32 82 28 82 -3 0 -39 -21 -80 -46 -82 -51 -66 -54 -155 29 -37 33
-56 45 -56 33z"/>
<path d="M5639 3998 c-34 -67 -40 -122 -21 -170 6 -16 17 -28 25 -28 20 0 77
125 76 168 -3 107 -35 119 -80 30z"/>
<path d="M273 4010 c-50 -23 -69 -39 -92 -75 -50 -80 -26 -91 85 -40 56 26 91
65 100 114 8 40 -8 40 -93 1z"/>
<path d="M5704 3808 c-32 -54 -37 -72 -37 -121 0 -55 10 -76 35 -77 4 0 24 30
44 67 29 51 37 77 37 114 0 45 -15 79 -34 79 -4 0 -25 -28 -45 -62z"/>
<path d="M220 3826 c-65 -33 -105 -76 -117 -124 -11 -44 11 -46 85 -7 58 30
74 44 95 84 22 39 24 51 14 64 -11 15 -18 14 -77 -17z"/>
<path d="M193 3649 c-62 -31 -112 -79 -128 -124 -11 -34 -11 -42 0 -54 12 -12
21 -9 66 20 72 46 96 72 110 119 17 55 4 65 -48 39z"/>
<path d="M5755 3613 c-33 -49 -40 -68 -43 -120 -4 -53 -2 -64 13 -70 20 -7 41
14 82 85 28 47 37 101 22 139 -13 36 -32 28 -74 -34z"/>
<path d="M119 3431 c-65 -48 -76 -63 -85 -110 -14 -73 -2 -78 69 -27 64 45 85
71 98 119 8 31 8 43 -3 53 -11 11 -24 5 -79 -35z"/>
<path d="M5814 3442 c-62 -79 -74 -105 -74 -157 0 -72 18 -77 68 -17 51 61 61
82 66 134 7 69 -22 88 -60 40z"/>
<path d="M93 3232 c-58 -53 -74 -80 -80 -133 -6 -52 14 -54 74 -5 63 51 84 84
86 138 3 58 -16 58 -80 0z"/>
<path d="M5839 3238 c-58 -60 -80 -96 -84 -134 -9 -90 15 -95 84 -17 38 42 52
67 57 98 12 85 -7 104 -57 53z"/>
<path d="M572 3127 c-60 -84 -41 -80 -169 -39 -35 11 -63 19 -63 18 0 -1 25
-36 55 -76 33 -44 52 -78 47 -84 -5 -6 -30 -39 -56 -73 -26 -35 -43 -63 -38
-63 5 0 45 11 88 25 43 14 80 25 81 25 2 0 26 -33 55 -72 l53 -73 3 92 3 92
84 27 c46 15 82 31 80 34 -2 3 -40 17 -84 30 l-80 23 -3 95 -3 95 -53 -76z"/>
<path d="M5290 3106 l0 -93 -47 -13 c-27 -7 -66 -20 -88 -29 l-40 -15 85 -27
85 -27 5 -93 5 -94 53 73 c29 39 56 72 60 72 5 0 42 -11 82 -25 40 -14 77 -25
82 -25 5 0 -16 33 -46 74 l-55 75 53 73 c30 40 53 74 52 75 -2 2 -36 -8 -76
-22 -40 -14 -81 -25 -90 -25 -9 0 -38 31 -64 70 -27 39 -50 70 -52 70 -2 0 -4
-42 -4 -94z"/>
<path d="M81 3031 c-60 -60 -77 -97 -69 -151 5 -37 22 -34 70 12 59 56 77 85
82 136 7 71 -14 72 -83 3z"/>
<path d="M5821 3004 c-34 -36 -61 -72 -62 -82 0 -9 -2 -29 -4 -44 -2 -15 3
-32 11 -39 12 -10 24 -4 66 37 56 54 78 96 78 148 0 56 -23 51 -89 -20z"/>
<path d="M90 2839 c-54 -61 -69 -92 -70 -142 0 -55 24 -59 69 -11 21 21 45 51
55 66 30 46 28 138 -3 138 -4 0 -27 -23 -51 -51z"/>
<path d="M5819 2808 c-54 -51 -79 -97 -79 -150 0 -41 57 -12 131 66 38 40 51
128 19 134 -8 1 -40 -21 -71 -50z"/>
<path d="M97 2629 c-47 -62 -51 -74 -48 -139 3 -53 21 -55 63 -7 53 60 70 99
66 155 -4 67 -24 65 -81 -9z"/>
<path d="M5813 2619 c-62 -46 -88 -82 -97 -132 -10 -53 12 -58 71 -14 67 49
82 68 98 121 13 41 12 47 -3 55 -13 6 -30 -1 -69 -30z"/>
<path d="M168 2486 c-8 -8 -30 -38 -49 -67 -28 -44 -33 -62 -33 -107 1 -52 16
-78 37 -65 5 3 27 33 48 66 33 50 39 69 39 112 0 60 -18 86 -42 61z"/>
<path d="M5785 2421 c-72 -45 -89 -64 -105 -114 -18 -58 -2 -68 57 -37 65 35
108 81 120 129 16 62 -1 68 -72 22z"/>
<path d="M175 2240 c-28 -46 -37 -73 -37 -103 1 -99 26 -113 72 -40 40 63 54
116 43 162 -14 56 -36 51 -78 -19z"/>
<path d="M701 2255 c-5 -22 -15 -64 -21 -92 -7 -29 -15 -53 -18 -54 -4 0 -43
-3 -87 -6 -44 -3 -82 -6 -84 -8 -2 -2 30 -25 70 -51 41 -25 75 -48 77 -49 1
-1 -7 -40 -18 -85 -10 -46 -18 -85 -16 -87 2 -2 32 21 67 52 35 30 67 55 71
55 4 0 40 -20 80 -44 40 -25 74 -43 75 -42 2 1 -13 40 -33 86 -34 82 -35 85
-16 100 10 8 43 35 73 59 l54 44 -96 -6 -96 -7 -35 87 -36 88 -11 -40z"/>
<path d="M5170 2205 l-33 -86 -75 7 c-42 3 -85 8 -96 10 -22 3 -7 -12 88 -94
l38 -33 -22 -52 c-56 -128 -54 -120 -28 -106 12 7 47 28 77 47 63 40 61 41
152 -38 l52 -45 -7 35 c-4 19 -9 42 -11 50 -2 8 -8 34 -13 58 l-10 42 79 47
c43 26 77 48 76 49 -3 2 -138 14 -164 14 -19 0 -24 11 -42 86 -11 47 -22 88
-24 90 -2 3 -19 -34 -37 -81z"/>
<path d="M5745 2228 c-33 -17 -68 -37 -78 -46 -37 -33 -64 -122 -36 -122 6 0
42 16 80 36 56 29 72 44 89 78 21 44 25 72 13 79 -5 3 -35 -9 -68 -25z"/>
<path d="M263 2108 c-6 -7 -23 -40 -38 -72 -22 -47 -26 -70 -22 -109 4 -50 24
-82 43 -69 25 16 67 128 67 176 -1 55 -30 99 -50 74z"/>
<path d="M5675 2030 c-74 -35 -87 -46 -108 -87 -35 -67 -17 -81 63 -45 86 38
143 105 126 147 -7 20 -11 19 -81 -15z"/>
<path d="M321 1908 c-5 -13 -16 -41 -25 -64 -22 -53 -24 -91 -10 -134 21 -61
45 -51 77 31 29 73 30 106 8 162 -13 33 -38 35 -50 5z"/>
<path d="M5624 1850 c-81 -28 -110 -47 -133 -85 -42 -72 -23 -83 74 -44 71 29
110 64 121 107 10 36 -6 41 -62 22z"/>
<path d="M407 1743 c-14 -24 -44 -142 -42 -165 5 -43 29 -83 49 -83 23 0 56
87 58 147 1 64 -45 134 -65 101z"/>
<path d="M5510 1661 c-83 -26 -159 -112 -121 -135 4 -3 39 3 77 14 56 16 76
27 107 61 63 70 39 92 -63 60z"/>
<path d="M502 1567 c-18 -21 -40 -150 -31 -181 12 -40 38 -78 52 -73 15 5 37
68 44 130 9 73 -36 159 -65 124z"/>
<path d="M5412 1485 c-58 -14 -95 -36 -125 -78 -17 -21 -18 -29 -7 -41 7 -9
16 -14 20 -11 4 3 25 7 46 11 88 13 176 79 160 119 -6 18 -23 18 -94 0z"/>
<path d="M1144 1440 c4 -25 10 -63 13 -85 3 -22 6 -44 7 -48 0 -5 -37 -29 -84
-53 -47 -24 -77 -44 -67 -45 9 -1 20 -2 25 -3 4 -2 30 -6 57 -11 74 -11 87
-14 91 -17 1 -2 5 -21 8 -43 10 -78 18 -130 21 -133 1 -1 21 34 45 78 l42 81
51 -6 c29 -4 69 -10 90 -15 20 -4 37 -5 37 -1 0 3 -27 32 -60 65 -33 32 -60
62 -60 67 0 5 18 45 40 89 l40 80 -85 -45 -84 -45 -67 67 -67 68 7 -45z"/>
<path d="M4711 1415 l-63 -65 -77 40 c-43 22 -80 40 -83 40 -4 0 13 -36 37
-80 l44 -81 -65 -64 c-35 -36 -64 -67 -64 -69 0 -1 37 3 81 11 45 8 88 12 95
9 7 -3 30 -39 51 -81 42 -86 44 -84 58 34 4 33 12 64 18 69 7 5 35 13 62 16
131 18 129 14 32 62 -52 27 -85 49 -82 56 4 12 8 39 21 131 3 20 4 37 2 37 -2
0 -32 -29 -67 -65z"/>
<path d="M601 1393 c-5 -10 -12 -50 -16 -89 -6 -61 -4 -76 14 -112 31 -60 56
-57 70 8 17 81 14 133 -11 170 -28 41 -44 47 -57 23z"/>
<path d="M5311 1319 c-67 -12 -110 -32 -139 -69 -20 -26 -21 -30 -6 -44 8 -9
19 -14 24 -11 4 2 29 7 56 10 27 4 64 13 82 22 38 18 76 67 68 88 -6 16 -8 17
-85 4z"/>
<path d="M717 1243 c-5 -11 -11 -89 -11 -138 1 -47 40 -115 67 -115 9 0 18 6
18 13 1 6 3 23 5 37 12 78 6 127 -20 168 -24 39 -49 53 -59 35z"/>
<path d="M5111 1144 c-60 -26 -105 -93 -63 -95 100 -5 175 15 211 57 36 42 22
56 -55 52 -37 -1 -78 -8 -93 -14z"/>
<path d="M845 1090 c-12 -19 -8 -156 5 -181 28 -54 78 -89 81 -56 11 131 4
177 -36 220 -27 29 -40 33 -50 17z"/>
<path d="M4959 990 c-50 -26 -75 -56 -60 -74 19 -23 151 -14 195 13 43 27 58
45 51 63 -9 22 -141 20 -186 -2z"/>
<path d="M3784 934 c3 -21 8 -65 10 -96 l6 -56 -85 -34 c-46 -18 -81 -36 -77
-39 4 -4 42 -14 85 -24 43 -10 80 -21 82 -24 2 -4 7 -45 10 -91 4 -47 8 -86 9
-87 1 -2 24 33 50 76 33 55 53 79 64 76 10 -2 45 -10 78 -19 34 -9 67 -16 74
-16 7 0 -13 29 -44 64 -31 35 -56 70 -56 78 0 7 10 29 23 48 13 19 34 52 46
73 l23 38 -38 -16 c-22 -9 -61 -26 -89 -37 l-50 -20 -24 29 c-13 15 -41 48
-63 72 l-39 44 5 -39z"/>
<path d="M984 948 c-13 -21 -5 -137 11 -172 9 -19 27 -44 41 -57 24 -22 26
-23 38 -7 13 17 13 107 1 155 -6 24 -62 93 -75 93 -5 0 -12 -5 -16 -12z"/>
<path d="M2072 895 c-29 -36 -57 -65 -62 -65 -4 0 -45 16 -90 35 -44 19 -79
31 -77 27 3 -4 23 -38 46 -75 23 -37 42 -71 44 -76 2 -7 -64 -90 -100 -127 -7
-7 -13 -15 -13 -17 0 -3 40 5 90 18 l90 23 50 -82 c30 -49 50 -73 50 -61 1 30
10 127 15 151 4 18 19 25 82 39 43 10 81 21 85 24 4 3 -31 21 -77 40 l-84 34
5 61 c3 33 7 73 9 89 2 15 0 27 -3 27 -4 0 -31 -29 -60 -65z"/>
<path d="M4815 855 c-16 -7 -41 -23 -53 -35 -37 -35 -13 -50 80 -52 62 -1 81
3 110 20 79 49 70 70 -32 76 -49 3 -85 0 -105 -9z"/>
<path d="M1131 817 c-8 -10 -8 -35 -2 -87 7 -57 16 -80 39 -109 33 -41 78 -51
76 -16 -6 105 -20 154 -53 185 -41 38 -48 41 -60 27z"/>
<path d="M2958 794 c-3 -5 -16 -40 -28 -79 -12 -38 -26 -74 -30 -80 -5 -5 -47
-9 -94 -9 -47 1 -86 0 -86 -2 0 -1 33 -28 74 -58 l73 -56 -29 -81 c-16 -45
-27 -83 -25 -85 2 -2 34 19 71 46 38 28 74 50 80 50 6 0 40 -23 76 -50 36 -26
66 -47 68 -45 2 2 -9 40 -24 85 l-28 82 20 17 c12 9 38 30 59 46 21 17 45 36
54 43 13 10 -1 12 -77 10 l-93 -3 -28 89 c-16 48 -31 84 -33 80z"/>
<path d="M4633 715 c-40 -24 -54 -47 -35 -58 11 -7 114 -19 146 -18 40 2 106
41 106 62 0 22 -17 28 -103 34 -65 5 -76 3 -114 -20z"/>
<path d="M1287 698 c-10 -5 -15 -13 -12 -17 2 -5 7 -26 11 -47 12 -81 25 -113
59 -143 39 -34 46 -36 62 -20 12 12 -8 124 -29 163 -22 41 -71 76 -91 64z"/>
<path d="M4513 619 c-42 -8 -83 -35 -83 -55 0 -20 30 -29 131 -41 70 -8 161
46 120 71 -22 14 -139 31 -168 25z"/>
<path d="M1444 558 c4 -18 9 -42 11 -52 12 -54 30 -88 61 -116 39 -34 74 -40
74 -12 0 24 -18 91 -36 132 -16 37 -68 80 -98 80 -16 0 -17 -5 -12 -32z"/>
<path d="M4297 503 c-29 -12 -37 -20 -35 -36 2 -17 18 -25 80 -41 77 -20 78
-20 125 0 71 29 66 52 -17 76 -78 22 -103 22 -153 1z"/>
<path d="M1613 485 c-6 -16 22 -107 46 -148 17 -31 69 -67 95 -67 21 0 20 23
-5 98 -15 44 -31 70 -56 91 -43 35 -72 45 -80 26z"/>
<path d="M4117 413 c-52 -22 -44 -42 28 -71 68 -27 122 -29 166 -6 47 24 33
44 -45 71 -81 27 -98 28 -149 6z"/>
<path d="M1797 403 c-11 -10 -8 -51 3 -58 6 -3 10 -13 10 -21 0 -8 11 -32 25
-55 41 -65 125 -104 125 -59 0 37 -56 146 -86 167 -35 24 -68 36 -77 26z"/>
<path d="M3933 338 c-56 -18 -43 -42 42 -77 75 -32 101 -33 160 -11 39 15 28
31 -45 67 -67 34 -102 38 -157 21z"/>
<path d="M1983 333 c-20 -7 -16 -28 16 -91 33 -65 52 -85 102 -106 62 -26 68
-8 25 78 -33 67 -43 79 -84 100 -26 13 -53 21 -59 19z"/>
<path d="M3741 274 c-17 -7 -31 -20 -31 -28 0 -8 32 -30 71 -49 58 -30 78 -35
117 -31 26 3 54 12 62 20 13 14 13 17 -5 30 -71 55 -163 79 -214 58z"/>
<path d="M2157 264 c-7 -8 43 -104 72 -138 9 -10 36 -28 60 -38 36 -17 45 -18
57 -6 11 11 7 23 -24 77 -20 35 -48 72 -62 83 -28 20 -91 34 -103 22z"/>
<path d="M2357 223 c-14 -14 -6 -37 34 -94 31 -44 52 -62 84 -75 45 -17 76
-16 82 1 6 20 -87 136 -120 150 -52 21 -73 26 -80 18z"/>
<path d="M3531 216 c-18 -21 -5 -37 66 -77 41 -23 66 -31 103 -31 90 1 94 27
13 79 -68 43 -158 58 -182 29z"/>
<path d="M3363 192 c-51 -5 -48 -28 10 -71 59 -45 95 -61 137 -61 77 0 79 32
4 84 -59 41 -98 53 -151 48z"/>
<path d="M2544 175 c-3 -8 11 -35 33 -62 58 -73 61 -76 115 -90 83 -21 88 -4
23 79 -45 58 -94 88 -142 88 -13 0 -26 -7 -29 -15z"/>
<path d="M2743 159 c-9 -9 -1 -25 34 -66 53 -61 84 -81 137 -85 59 -4 63 13
14 70 -63 75 -153 113 -185 81z"/>
<path d="M2946 158 c-24 -13 -20 -22 27 -67 64 -61 82 -71 137 -78 41 -5 51
-3 56 11 6 16 -12 38 -87 103 -29 26 -109 45 -133 31z"/>
<path d="M3133 153 c-4 -10 2 -23 18 -35 13 -11 37 -31 52 -44 36 -32 69 -44
118 -44 60 0 62 24 8 72 -55 49 -97 68 -149 68 -29 0 -43 -5 -47 -17z"/>
</g>
</svg>
